<svg xmlns="http://www.w3.org/2000/svg" width="16" height="16" viewBox="0 0 16 16" fill="none">
  <rect width="16" height="16" rx="3" fill="#4F46E5"/>
  <path d="M8 3C5.24 3 3 5.24 3 8C3 10.76 5.24 13 8 13C10.76 13 13 10.76 13 8C13 5.24 10.76 3 8 3ZM8 11.5C6.07 11.5 4.5 9.93 4.5 8C4.5 6.07 6.07 4.5 8 4.5C9.93 4.5 11.5 6.07 11.5 8C11.5 9.93 9.93 11.5 8 11.5Z" fill="white"/>
  <path d="M8.75 5.75H7.25V8.25H4.75V9.75H8.75V5.75Z" fill="white"/>
  <path d="M10.5 7C11.05 7 11.5 6.55 11.5 6C11.5 5.45 11.05 5 10.5 5C9.95 5 9.5 5.45 9.5 6C9.5 6.55 9.95 7 10.5 7Z" fill="#EC4899"/>
</svg>