<svg xmlns="http://www.w3.org/2000/svg" width="48" height="48" viewBox="0 0 48 48" fill="none">
  <rect width="48" height="48" rx="8" fill="#4F46E5"/>
  <path d="M24 9C15.72 9 9 15.72 9 24C9 32.28 15.72 39 24 39C32.28 39 39 32.28 39 24C39 15.72 32.28 9 24 9ZM24 34.5C18.21 34.5 13.5 29.79 13.5 24C13.5 18.21 18.21 13.5 24 13.5C29.79 13.5 34.5 18.21 34.5 24C34.5 29.79 29.79 34.5 24 34.5Z" fill="white"/>
  <path d="M26.25 17.25H21.75V24.75H14.25V29.25H26.25V17.25Z" fill="white"/>
  <path d="M31.5 21C33.15 21 34.5 19.65 34.5 18C34.5 16.35 33.15 15 31.5 15C29.85 15 28.5 16.35 28.5 18C28.5 19.65 29.85 21 31.5 21Z" fill="#EC4899"/>
</svg>