<svg xmlns="http://www.w3.org/2000/svg" width="128" height="128" viewBox="0 0 128 128" fill="none">
  <rect width="128" height="128" rx="16" fill="#4F46E5"/>
  <path d="M64 24C41.92 24 24 41.92 24 64C24 86.08 41.92 104 64 104C86.08 104 104 86.08 104 64C104 41.92 86.08 24 64 24ZM64 92C48.56 92 36 79.44 36 64C36 48.56 48.56 36 64 36C79.44 36 92 48.56 92 64C92 79.44 79.44 92 64 92Z" fill="white"/>
  <path d="M70 46H58V66H38V78H70V46Z" fill="white"/>
  <path d="M84 56C88.4 56 92 52.4 92 48C92 43.6 88.4 40 84 40C79.6 40 76 43.6 76 48C76 52.4 79.6 56 84 56Z" fill="#EC4899"/>
</svg>